<mxfile host="app.diagrams.net" modified="2020-08-31T07:31:52.933Z" agent="5.0 (Macintosh; Intel Mac OS X 10_15_6) AppleWebKit/537.36 (KHTML, like Gecko) Chrome/85.0.4183.83 Safari/537.36" etag="Xtnf8Ti_oNynt0CkiHya" version="13.6.5" type="github">
  <diagram id="qLGAQN45khurday5uuPe" name="第 1 页">
    <mxGraphModel dx="1032" dy="741" grid="1" gridSize="10" guides="1" tooltips="1" connect="1" arrows="1" fold="1" page="1" pageScale="1" pageWidth="827" pageHeight="1169" math="0" shadow="0">
      <root>
        <mxCell id="0" />
        <mxCell id="1" parent="0" />
        <mxCell id="If2TSdoc109izGzcaKSD-9" value="node&lt;br&gt;cli/bin/taro" style="html=1;" parent="1" vertex="1">
          <mxGeometry x="152" y="20" width="96" height="50" as="geometry" />
        </mxCell>
        <mxCell id="If2TSdoc109izGzcaKSD-10" value="" style="endArrow=classic;html=1;exitX=0.5;exitY=1;exitDx=0;exitDy=0;entryX=0.5;entryY=0;entryDx=0;entryDy=0;" parent="1" source="If2TSdoc109izGzcaKSD-9" target="If2TSdoc109izGzcaKSD-5" edge="1">
          <mxGeometry relative="1" as="geometry">
            <mxPoint x="196" y="330" as="sourcePoint" />
            <mxPoint x="296" y="330" as="targetPoint" />
          </mxGeometry>
        </mxCell>
        <mxCell id="If2TSdoc109izGzcaKSD-12" value="1. 解析通过命令行启动的参数&lt;br&gt;2. 创建Kernel对象&lt;br&gt;3. 判断命令行参数，决定执行build/init/create/config/info/doctor/convert/update" style="rounded=0;whiteSpace=wrap;html=1;align=left;" parent="1" vertex="1">
          <mxGeometry x="326" y="100" width="270" height="70" as="geometry" />
        </mxCell>
        <mxCell id="If2TSdoc109izGzcaKSD-13" value="" style="endArrow=classic;html=1;" parent="1" edge="1">
          <mxGeometry width="50" height="50" relative="1" as="geometry">
            <mxPoint x="206" y="150" as="sourcePoint" />
            <mxPoint x="321" y="150" as="targetPoint" />
            <Array as="points" />
          </mxGeometry>
        </mxCell>
        <mxCell id="CVPaqhK79-wcYEb8_Y2l-2" value="" style="endArrow=classic;html=1;exitX=0.507;exitY=1;exitDx=0;exitDy=0;exitPerimeter=0;" parent="1" source="If2TSdoc109izGzcaKSD-8" target="If2TSdoc109izGzcaKSD-14" edge="1">
          <mxGeometry width="50" height="50" relative="1" as="geometry">
            <mxPoint x="-54" y="300" as="sourcePoint" />
            <mxPoint x="-4" y="250" as="targetPoint" />
          </mxGeometry>
        </mxCell>
        <mxCell id="CVPaqhK79-wcYEb8_Y2l-3" value="- this.init() 在其initPresetsAndPlugins方法中开始编译，编译方法是createBabelRegister。通过require(&#39;@babel/register&#39;)进行编译。&lt;br&gt;- this.applyPlugins()&lt;br&gt;- this.runWithPlatform()" style="rounded=0;whiteSpace=wrap;html=1;align=left;" parent="1" vertex="1">
          <mxGeometry x="326" y="290" width="270" height="90" as="geometry" />
        </mxCell>
        <mxCell id="_iwkqZUHezdEcZJgWdHv-1" value="样式文件编译" style="text;html=1;strokeColor=none;fillColor=none;align=center;verticalAlign=middle;whiteSpace=wrap;rounded=0;" parent="1" vertex="1">
          <mxGeometry x="40" y="410" width="100" height="20" as="geometry" />
        </mxCell>
        <mxCell id="_iwkqZUHezdEcZJgWdHv-2" value="启动流程" style="text;html=1;strokeColor=none;fillColor=none;align=center;verticalAlign=middle;whiteSpace=wrap;rounded=0;" parent="1" vertex="1">
          <mxGeometry x="40" y="20" width="80" height="20" as="geometry" />
        </mxCell>
        <mxCell id="If2TSdoc109izGzcaKSD-5" value="cli/src/cli.ts" style="swimlane;fontStyle=1;align=center;verticalAlign=top;childLayout=stackLayout;horizontal=1;startSize=26;horizontalStack=0;resizeParent=1;resizeParentMax=0;resizeLast=0;collapsible=1;marginBottom=0;" parent="1" vertex="1">
          <mxGeometry x="125" y="100" width="150" height="70" as="geometry" />
        </mxCell>
        <mxCell id="If2TSdoc109izGzcaKSD-7" value="" style="line;strokeWidth=1;fillColor=none;align=left;verticalAlign=middle;spacingTop=-1;spacingLeft=3;spacingRight=3;rotatable=0;labelPosition=right;points=[];portConstraint=eastwest;" parent="If2TSdoc109izGzcaKSD-5" vertex="1">
          <mxGeometry y="26" width="150" height="8" as="geometry" />
        </mxCell>
        <mxCell id="If2TSdoc109izGzcaKSD-8" value="+ parseArgs()" style="text;strokeColor=none;fillColor=none;align=left;verticalAlign=top;spacingLeft=4;spacingRight=4;overflow=hidden;rotatable=0;points=[[0,0.5],[1,0.5]];portConstraint=eastwest;" parent="If2TSdoc109izGzcaKSD-5" vertex="1">
          <mxGeometry y="34" width="150" height="36" as="geometry" />
        </mxCell>
        <mxCell id="If2TSdoc109izGzcaKSD-14" value="src/commands/build" style="swimlane;fontStyle=1;align=center;verticalAlign=top;childLayout=stackLayout;horizontal=1;startSize=26;horizontalStack=0;resizeParent=1;resizeParentMax=0;resizeLast=0;collapsible=1;marginBottom=0;" parent="1" vertex="1">
          <mxGeometry x="120" y="200" width="160" height="86" as="geometry" />
        </mxCell>
        <mxCell id="If2TSdoc109izGzcaKSD-15" value="+ kernel" style="text;strokeColor=none;fillColor=none;align=left;verticalAlign=top;spacingLeft=4;spacingRight=4;overflow=hidden;rotatable=0;points=[[0,0.5],[1,0.5]];portConstraint=eastwest;" parent="If2TSdoc109izGzcaKSD-14" vertex="1">
          <mxGeometry y="26" width="160" height="26" as="geometry" />
        </mxCell>
        <mxCell id="If2TSdoc109izGzcaKSD-16" value="" style="line;strokeWidth=1;fillColor=none;align=left;verticalAlign=middle;spacingTop=-1;spacingLeft=3;spacingRight=3;rotatable=0;labelPosition=right;points=[];portConstraint=eastwest;" parent="If2TSdoc109izGzcaKSD-14" vertex="1">
          <mxGeometry y="52" width="160" height="8" as="geometry" />
        </mxCell>
        <mxCell id="CVPaqhK79-wcYEb8_Y2l-1" value="" style="endArrow=classic;html=1;entryX=0;entryY=0.5;entryDx=0;entryDy=0;" parent="If2TSdoc109izGzcaKSD-14" target="If2TSdoc109izGzcaKSD-21" edge="1">
          <mxGeometry width="50" height="50" relative="1" as="geometry">
            <mxPoint x="56" y="72" as="sourcePoint" />
            <mxPoint x="176" y="52" as="targetPoint" />
            <Array as="points">
              <mxPoint x="176" y="72" />
              <mxPoint x="176" y="47" />
            </Array>
          </mxGeometry>
        </mxCell>
        <mxCell id="If2TSdoc109izGzcaKSD-17" value="+ build()" style="text;strokeColor=none;fillColor=none;align=left;verticalAlign=top;spacingLeft=4;spacingRight=4;overflow=hidden;rotatable=0;points=[[0,0.5],[1,0.5]];portConstraint=eastwest;" parent="If2TSdoc109izGzcaKSD-14" vertex="1">
          <mxGeometry y="60" width="160" height="26" as="geometry" />
        </mxCell>
        <mxCell id="If2TSdoc109izGzcaKSD-18" value="Kernel(@tarojs/service)" style="swimlane;fontStyle=1;align=center;verticalAlign=top;childLayout=stackLayout;horizontal=1;startSize=26;horizontalStack=0;resizeParent=1;resizeParentMax=0;resizeLast=0;collapsible=1;marginBottom=0;" parent="1" vertex="1">
          <mxGeometry x="326" y="200" width="160" height="60" as="geometry" />
        </mxCell>
        <mxCell id="If2TSdoc109izGzcaKSD-20" value="" style="line;strokeWidth=1;fillColor=none;align=left;verticalAlign=middle;spacingTop=-1;spacingLeft=3;spacingRight=3;rotatable=0;labelPosition=right;points=[];portConstraint=eastwest;" parent="If2TSdoc109izGzcaKSD-18" vertex="1">
          <mxGeometry y="26" width="160" height="8" as="geometry" />
        </mxCell>
        <mxCell id="CVPaqhK79-wcYEb8_Y2l-4" value="" style="endArrow=classic;html=1;entryX=0.5;entryY=0;entryDx=0;entryDy=0;" parent="If2TSdoc109izGzcaKSD-18" target="CVPaqhK79-wcYEb8_Y2l-3" edge="1">
          <mxGeometry width="50" height="50" relative="1" as="geometry">
            <mxPoint x="40" y="50" as="sourcePoint" />
            <mxPoint x="90" as="targetPoint" />
            <Array as="points">
              <mxPoint x="135" y="50" />
            </Array>
          </mxGeometry>
        </mxCell>
        <mxCell id="If2TSdoc109izGzcaKSD-21" value="+ run()" style="text;strokeColor=none;fillColor=none;align=left;verticalAlign=top;spacingLeft=4;spacingRight=4;overflow=hidden;rotatable=0;points=[[0,0.5],[1,0.5]];portConstraint=eastwest;" parent="If2TSdoc109izGzcaKSD-18" vertex="1">
          <mxGeometry y="34" width="160" height="26" as="geometry" />
        </mxCell>
        <mxCell id="okpEa-yubMFcdNo9ZUSm-1" value="通过启动流程分析，我们知道taro通过babel开始进行编译。各个平台不同的编译实现则是通过preset完成。" style="text;html=1;strokeColor=none;fillColor=none;align=left;verticalAlign=middle;whiteSpace=wrap;rounded=0;" vertex="1" parent="1">
          <mxGeometry x="140" y="410" width="530" height="40" as="geometry" />
        </mxCell>
        <mxCell id="okpEa-yubMFcdNo9ZUSm-2" value="cli/src/presets/index" style="rounded=0;whiteSpace=wrap;html=1;align=center;" vertex="1" parent="1">
          <mxGeometry x="138" y="470" width="120" height="30" as="geometry" />
        </mxCell>
        <mxCell id="okpEa-yubMFcdNo9ZUSm-7" value="" style="endArrow=classic;html=1;exitX=0.5;exitY=1;exitDx=0;exitDy=0;entryX=0.5;entryY=0;entryDx=0;entryDy=0;" edge="1" parent="1" source="okpEa-yubMFcdNo9ZUSm-2" target="okpEa-yubMFcdNo9ZUSm-3">
          <mxGeometry width="50" height="50" relative="1" as="geometry">
            <mxPoint x="28" y="540" as="sourcePoint" />
            <mxPoint x="78" y="490" as="targetPoint" />
          </mxGeometry>
        </mxCell>
        <mxCell id="okpEa-yubMFcdNo9ZUSm-12" value="1. buildWithWebpack(); 通过@tarojs/rn-runner开始编译打包。&lt;br&gt;2. buildBundle(); 编译ReactNative的bundle文件。&lt;br&gt;3. startServerInNewWindow(); 启动Metro Server。" style="rounded=0;whiteSpace=wrap;html=1;align=left;" vertex="1" parent="1">
          <mxGeometry x="326" y="650" width="414" height="70" as="geometry" />
        </mxCell>
        <mxCell id="okpEa-yubMFcdNo9ZUSm-3" value="cli/src/presets/platforms/rn" style="swimlane;fontStyle=1;align=center;verticalAlign=top;childLayout=stackLayout;horizontal=1;startSize=26;horizontalStack=0;resizeParent=1;resizeParentMax=0;resizeLast=0;collapsible=1;marginBottom=0;" vertex="1" parent="1">
          <mxGeometry x="118" y="530" width="160" height="80" as="geometry" />
        </mxCell>
        <mxCell id="okpEa-yubMFcdNo9ZUSm-5" value="" style="line;strokeWidth=1;fillColor=none;align=left;verticalAlign=middle;spacingTop=-1;spacingLeft=3;spacingRight=3;rotatable=0;labelPosition=right;points=[];portConstraint=eastwest;" vertex="1" parent="okpEa-yubMFcdNo9ZUSm-3">
          <mxGeometry y="26" width="160" height="8" as="geometry" />
        </mxCell>
        <mxCell id="okpEa-yubMFcdNo9ZUSm-6" value="+ fn()&#xa;        require(&#39;../../rn&#39;).build" style="text;strokeColor=none;fillColor=none;align=left;verticalAlign=top;spacingLeft=4;spacingRight=4;overflow=hidden;rotatable=0;points=[[0,0.5],[1,0.5]];portConstraint=eastwest;" vertex="1" parent="okpEa-yubMFcdNo9ZUSm-3">
          <mxGeometry y="34" width="160" height="46" as="geometry" />
        </mxCell>
        <mxCell id="okpEa-yubMFcdNo9ZUSm-14" value="" style="endArrow=classic;html=1;exitX=0.5;exitY=1;exitDx=0;exitDy=0;" edge="1" parent="1" target="okpEa-yubMFcdNo9ZUSm-8">
          <mxGeometry width="50" height="50" relative="1" as="geometry">
            <mxPoint x="197.5" y="610" as="sourcePoint" />
            <mxPoint x="197.5" y="640" as="targetPoint" />
          </mxGeometry>
        </mxCell>
        <mxCell id="okpEa-yubMFcdNo9ZUSm-8" value="cli/src/rn/index" style="swimlane;fontStyle=1;align=center;verticalAlign=top;childLayout=stackLayout;horizontal=1;startSize=26;horizontalStack=0;resizeParent=1;resizeParentMax=0;resizeLast=0;collapsible=1;marginBottom=0;" vertex="1" parent="1">
          <mxGeometry x="118" y="650" width="160" height="60" as="geometry" />
        </mxCell>
        <mxCell id="okpEa-yubMFcdNo9ZUSm-10" value="" style="line;strokeWidth=1;fillColor=none;align=left;verticalAlign=middle;spacingTop=-1;spacingLeft=3;spacingRight=3;rotatable=0;labelPosition=right;points=[];portConstraint=eastwest;" vertex="1" parent="okpEa-yubMFcdNo9ZUSm-8">
          <mxGeometry y="26" width="160" height="8" as="geometry" />
        </mxCell>
        <mxCell id="okpEa-yubMFcdNo9ZUSm-11" value="+ build()" style="text;strokeColor=none;fillColor=none;align=left;verticalAlign=top;spacingLeft=4;spacingRight=4;overflow=hidden;rotatable=0;points=[[0,0.5],[1,0.5]];portConstraint=eastwest;" vertex="1" parent="okpEa-yubMFcdNo9ZUSm-8">
          <mxGeometry y="34" width="160" height="26" as="geometry" />
        </mxCell>
        <mxCell id="okpEa-yubMFcdNo9ZUSm-13" value="" style="endArrow=classic;html=1;entryX=0;entryY=0.5;entryDx=0;entryDy=0;" edge="1" parent="okpEa-yubMFcdNo9ZUSm-8">
          <mxGeometry width="50" height="50" relative="1" as="geometry">
            <mxPoint x="50" y="51" as="sourcePoint" />
            <mxPoint x="200" y="26" as="targetPoint" />
            <Array as="points">
              <mxPoint x="170" y="51" />
              <mxPoint x="170" y="26" />
            </Array>
          </mxGeometry>
        </mxCell>
        <mxCell id="okpEa-yubMFcdNo9ZUSm-15" value="@tarojs/rn-runner" style="swimlane;fontStyle=0;childLayout=stackLayout;horizontal=1;startSize=26;fillColor=none;horizontalStack=0;resizeParent=1;resizeParentMax=0;resizeLast=0;collapsible=1;marginBottom=0;align=center;" vertex="1" parent="1">
          <mxGeometry x="130" y="780" width="140" height="52" as="geometry" />
        </mxCell>
        <mxCell id="okpEa-yubMFcdNo9ZUSm-16" value="+ field: build()" style="text;strokeColor=none;fillColor=none;align=left;verticalAlign=top;spacingLeft=4;spacingRight=4;overflow=hidden;rotatable=0;points=[[0,0.5],[1,0.5]];portConstraint=eastwest;" vertex="1" parent="okpEa-yubMFcdNo9ZUSm-15">
          <mxGeometry y="26" width="140" height="26" as="geometry" />
        </mxCell>
        <mxCell id="okpEa-yubMFcdNo9ZUSm-19" value="开始使用webpack打包" style="text;html=1;strokeColor=none;fillColor=none;align=center;verticalAlign=middle;whiteSpace=wrap;rounded=0;" vertex="1" parent="1">
          <mxGeometry x="320" y="806" width="150" height="20" as="geometry" />
        </mxCell>
      </root>
    </mxGraphModel>
  </diagram>
</mxfile>
